<?xml version="1.0" encoding="UTF-8" standalone="no"?>
<svg width="80px" height="220px" viewBox="0 0 80 220" version="1.1" xmlns="http://www.w3.org/2000/svg" xmlns:xlink="http://www.w3.org/1999/xlink">
    <!-- Generator: Sketch 3.8.3 (29802) - http://www.bohemiancoding.com/sketch -->
    <title>iPhone 6</title>
    <desc>Created with Sketch.</desc>
    <defs></defs>
    <g id="Page-1" stroke="none" stroke-width="1" fill="none" fill-rule="evenodd">
        <g id="iPhone-6" fill="#000000">
            <path d="M79.9551915,60.8289412 L79.9551915,39.8322322 C79.9607926,39.5164922 80,39.2007522 80,38.8795685 C80,38.5583847 79.9607926,38.2480885 79.9551915,37.9269047 C79.4286915,16.897533 61.7573339,0 40.0028005,0 L0,0 L0,37.9377923 C0.0392074494,38.2535323 0,38.5638285 0,38.8795685 C0,39.1953084 0.0392074494,39.5056046 0.0504095778,39.8213446 L0.0504095778,159.176503 L0.0504095778,180.167768 C0.0504095778,180.488952 0,180.799248 0,181.120432 C0,181.447059 0.0504095778,181.757355 0.0504095778,182.078539 C0.582510677,203.102467 18.2482672,220 40.0028005,220 L79.9551915,220 L79.9551915,182.062208 C79.9607926,181.746468 80,181.441615 80,181.120432 C80,180.804692 79.9607926,180.499839 79.9551915,180.184099 L79.9551915,60.8289412 Z" id="Fill-1"></path>
        </g>
    </g>
</svg>
